<?xml version="1.0" standalone="no"?><!DOCTYPE svg PUBLIC "-//W3C//DTD SVG 1.1//EN" "http://www.w3.org/Graphics/SVG/1.1/DTD/svg11.dtd"><svg t="1693383372775" class="icon" viewBox="0 0 1024 1024" version="1.1" xmlns="http://www.w3.org/2000/svg" p-id="2227" xmlns:xlink="http://www.w3.org/1999/xlink" width="16" height="16"><path d="M0 0m256 0l512 0q256 0 256 256l0 512q0 256-256 256l-512 0q-256 0-256-256l0-512q0-256 256-256Z" fill="#74CBCE" p-id="2228"></path><path d="M306.624 831.936a115.2 115.2 0 0 1-114.688-115.2V306.432a115.2 115.2 0 0 1 114.688-114.688h410.304a115.2 115.2 0 0 1 115.2 114.688v410.304a114.176 114.176 0 0 1-33.6 81.28 114.24 114.24 0 0 1-81.344 33.664z m-38.784-115.2a38.912 38.912 0 0 0 38.784 39.04h410.304a39.168 39.168 0 0 0 39.04-39.04V480.704H267.776z m488.192-311.936V306.432a38.976 38.976 0 0 0-39.04-38.784H306.688a38.72 38.72 0 0 0-38.784 38.784v98.368z" fill="#FFFFFF" p-id="2229"></path><path d="M515.136 337.92a39.68 39.68 0 0 1 39.616-39.616 39.552 39.552 0 0 1 39.296 39.616 39.488 39.488 0 0 1-39.296 39.36 39.616 39.616 0 0 1-39.616-39.36z m-111.36 0a39.616 39.616 0 0 1 39.552-39.616 39.616 39.616 0 0 1 39.36 39.616 39.552 39.552 0 0 1-39.36 39.36 39.552 39.552 0 0 1-39.552-39.36z m-110.656 0a39.552 39.552 0 0 1 39.296-39.616 39.616 39.616 0 0 1 39.616 39.616 39.616 39.616 0 0 1-39.616 39.36 39.488 39.488 0 0 1-39.296-39.36z" fill="#FFFFFF" opacity=".8" p-id="2230"></path></svg>